<svg id="Layer_1" data-name="Layer 1" xmlns="http://www.w3.org/2000/svg" width="2500" height="2500" viewBox="0 0 2500 2500"><title>infight</title><path d="M571.65,1338.11Q584,1379,598,1421.59c62.46,190.23,222.6,137.65,265.87,285.8l.64,1.94c65.34,231.75,104.72,562.89,130,657.81,22.28,74.4,94.56,129.16,164.44,106.21l1-.32,1-.32c69.88-22.94,91.1-107.33,66.88-181.09L892.61,1271" fill="#3cb187"/><path d="M1778.58,1011.78C1704.25,924.95,1596,934,1561.65,816.25l-.64-1.94c-65.34-231.75-104.72-562.89-130-657.81-22.28-74.4-94.56-129.16-164.44-106.21l-1,.32-1,.32c-69.88,22.94-91.1,107.32-66.88,181.09l286.8,873.46" fill="#dfa22f"/><path d="M235.38,1873.07c5.26,16,16.35,26.89,31.19,32.77,140.93,54.26,475.24,132.65,1125.52-80.87,190.23-62.46,137.65-222.6,285.8-265.87l1.94-.64c231.75-65.34,562.89-104.72,657.81-130,74.4-22.28,129.16-94.56,106.21-164.44l-.32-1-.32-1c-22.94-69.88-107.33-91.1-181.09-66.88L262.28,1851.87C238,1859.84,232.51,1864.34,235.38,1873.07Z" fill="#ce1e5b"/><path d="M1484.58,1105.47l369.84,1126.37c8,24.26,12.46,29.78,21.2,26.91,16-5.26,26.89-16.35,32.77-31.19,54.26-140.93,132.65-475.24-80.87-1125.52-12.82-39-29.75-67.85-48.94-90.27" fill="#dfa22f"/><path d="M2251.08,544.65c-5.26-16-16.35-26.89-31.19-32.77C2079,457.63,1744.64,379.24,1094.37,592.75c-190.23,62.46-137.65,222.6-285.8,265.87l-1.94.64C574.88,924.61,243.75,964,148.82,989.24c-74.4,22.28-129.16,94.56-106.21,164.44l.32,1,.32,1c22.94,69.88,107.33,91.1,181.09,66.88L2224.17,565.85C2248.43,557.89,2253.95,553.39,2251.08,544.65Z" fill="#72c5cd"/><path d="M892.61,1271,571.11,291.79c-8-24.26-12.46-29.78-21.2-26.91-16,5.26-26.89,16.35-32.77,31.19-51.89,134.76-125.84,446.38,54.51,1042" fill="#3cb187"/></svg>